<svg width="588" height="379" viewBox="0 0 588 379" fill="none" xmlns="http://www.w3.org/2000/svg">
<path d="M448.031 115.613V85.3844L296.967 33.0649L149.389 83.0591L147.065 183.047L296.967 231.879M296.967 231.879L448.031 183.047V281.873L296.967 328.379M296.967 231.879V183.047M296.967 328.379L149.389 279.548L221.435 263.271M296.967 328.379V295.881" stroke="#004040" stroke-width="8"/>
<circle cx="296.842" cy="33.0649" r="7.06494" fill="#004040"/>
<circle cx="296.842" cy="297.293" r="7.06494" fill="#004040"/>
<circle cx="140.065" cy="279.065" r="7.06494" fill="#004040"/>
<circle cx="296.842" cy="187.081" r="7.06494" fill="#004040"/>
<path d="M255.09 261.516C255.09 262.667 255.244 263.701 255.554 264.619C255.863 265.528 256.303 266.301 256.873 266.939C257.453 267.568 258.149 268.051 258.961 268.389C259.783 268.728 260.706 268.897 261.731 268.897C262.755 268.897 263.674 268.728 264.486 268.389C265.307 268.051 266.003 267.568 266.574 266.939C267.144 266.301 267.584 265.528 267.893 264.619C268.202 263.701 268.357 262.667 268.357 261.516C268.357 260.366 268.202 259.337 267.893 258.428C267.584 257.51 267.144 256.731 266.574 256.093C266.003 255.455 265.307 254.967 264.486 254.629C263.674 254.291 262.755 254.121 261.731 254.121C260.706 254.121 259.783 254.291 258.961 254.629C258.149 254.967 257.453 255.455 256.873 256.093C256.303 256.731 255.863 257.51 255.554 258.428C255.244 259.337 255.09 260.366 255.09 261.516ZM273.432 276.104H270.213C269.749 276.104 269.329 276.041 268.952 275.915C268.584 275.789 268.246 275.557 267.937 275.219L264.863 271.826C264.37 271.961 263.862 272.063 263.34 272.131C262.828 272.198 262.291 272.232 261.731 272.232C260.145 272.232 258.7 271.966 257.395 271.434C256.09 270.893 254.969 270.144 254.031 269.187C253.103 268.23 252.383 267.099 251.871 265.794C251.358 264.479 251.102 263.053 251.102 261.516C251.102 259.979 251.358 258.558 251.871 257.253C252.383 255.939 253.103 254.803 254.031 253.846C254.969 252.889 256.09 252.145 257.395 251.613C258.7 251.072 260.145 250.801 261.731 250.801C262.794 250.801 263.794 250.927 264.732 251.178C265.67 251.42 266.53 251.768 267.313 252.222C268.096 252.667 268.797 253.213 269.416 253.86C270.044 254.498 270.576 255.214 271.011 256.006C271.446 256.799 271.774 257.659 271.997 258.587C272.229 259.515 272.345 260.492 272.345 261.516C272.345 262.454 272.248 263.353 272.055 264.213C271.861 265.064 271.581 265.862 271.214 266.606C270.856 267.35 270.416 268.037 269.894 268.665C269.372 269.284 268.778 269.83 268.111 270.303L273.432 276.104ZM287.81 257.123V272H285.62C285.146 272 284.847 271.782 284.721 271.347L284.475 270.158C283.866 270.777 283.194 271.28 282.459 271.666C281.724 272.043 280.859 272.232 279.864 272.232C279.052 272.232 278.331 272.097 277.703 271.826C277.084 271.546 276.562 271.154 276.137 270.651C275.712 270.149 275.388 269.554 275.166 268.868C274.953 268.172 274.847 267.408 274.847 266.577V257.123H278.428V266.577C278.428 267.486 278.636 268.191 279.052 268.694C279.477 269.187 280.11 269.433 280.951 269.433C281.57 269.433 282.15 269.298 282.691 269.027C283.232 268.747 283.745 268.365 284.228 267.882V257.123H287.81ZM299.22 265.649C298.185 265.697 297.315 265.789 296.61 265.924C295.904 266.05 295.339 266.214 294.913 266.417C294.488 266.62 294.183 266.857 294 267.128C293.816 267.399 293.724 267.693 293.724 268.012C293.724 268.641 293.908 269.09 294.275 269.361C294.652 269.632 295.14 269.767 295.74 269.767C296.474 269.767 297.108 269.636 297.639 269.375C298.181 269.105 298.707 268.699 299.22 268.157V265.649ZM291.013 259.196C292.724 257.63 294.783 256.847 297.19 256.847C298.06 256.847 298.838 256.992 299.524 257.282C300.211 257.563 300.791 257.959 301.264 258.471C301.738 258.974 302.096 259.578 302.337 260.284C302.589 260.99 302.714 261.763 302.714 262.604V272H301.09C300.752 272 300.491 271.952 300.307 271.855C300.124 271.749 299.979 271.541 299.872 271.231L299.553 270.158C299.176 270.497 298.809 270.796 298.451 271.057C298.094 271.309 297.721 271.521 297.335 271.695C296.948 271.869 296.532 272 296.088 272.087C295.653 272.184 295.169 272.232 294.638 272.232C294.009 272.232 293.429 272.15 292.898 271.985C292.366 271.811 291.907 271.555 291.52 271.217C291.134 270.879 290.834 270.458 290.621 269.955C290.409 269.453 290.302 268.868 290.302 268.201C290.302 267.824 290.365 267.452 290.491 267.084C290.616 266.707 290.819 266.35 291.1 266.011C291.39 265.673 291.762 265.354 292.216 265.054C292.671 264.755 293.226 264.494 293.884 264.271C294.551 264.049 295.324 263.87 296.204 263.735C297.083 263.59 298.089 263.503 299.22 263.474V262.604C299.22 261.608 299.007 260.874 298.582 260.4C298.156 259.917 297.543 259.675 296.74 259.675C296.16 259.675 295.677 259.743 295.29 259.878C294.913 260.013 294.58 260.168 294.29 260.342C294 260.506 293.734 260.656 293.492 260.791C293.26 260.927 292.999 260.994 292.709 260.994C292.458 260.994 292.245 260.932 292.071 260.806C291.897 260.671 291.757 260.516 291.651 260.342L291.013 259.196ZM309.712 250.453V272H306.131V250.453H309.712ZM316.993 257.123V272H313.397V257.123H316.993ZM317.486 252.787C317.486 253.097 317.423 253.387 317.297 253.657C317.172 253.928 317.002 254.165 316.79 254.368C316.587 254.571 316.345 254.735 316.065 254.861C315.784 254.977 315.485 255.035 315.166 255.035C314.856 255.035 314.562 254.977 314.281 254.861C314.011 254.735 313.774 254.571 313.571 254.368C313.368 254.165 313.203 253.928 313.078 253.657C312.962 253.387 312.904 253.097 312.904 252.787C312.904 252.468 312.962 252.169 313.078 251.888C313.203 251.608 313.368 251.366 313.571 251.163C313.774 250.96 314.011 250.801 314.281 250.685C314.562 250.559 314.856 250.496 315.166 250.496C315.485 250.496 315.784 250.559 316.065 250.685C316.345 250.801 316.587 250.96 316.79 251.163C317.002 251.366 317.172 251.608 317.297 251.888C317.423 252.169 317.486 252.468 317.486 252.787ZM325.603 272.232C324.308 272.232 323.312 271.869 322.616 271.144C321.93 270.41 321.587 269.4 321.587 268.114V259.805H320.064C319.871 259.805 319.706 259.743 319.571 259.617C319.436 259.491 319.368 259.303 319.368 259.051V257.63L321.761 257.239L322.515 253.179C322.563 252.986 322.655 252.836 322.79 252.729C322.925 252.623 323.099 252.57 323.312 252.57H325.168V257.253H329.141V259.805H325.168V267.867C325.168 268.331 325.279 268.694 325.502 268.955C325.734 269.216 326.048 269.346 326.444 269.346C326.666 269.346 326.85 269.322 326.995 269.274C327.15 269.216 327.28 269.158 327.387 269.1C327.503 269.042 327.604 268.989 327.691 268.94C327.778 268.882 327.865 268.853 327.952 268.853C328.058 268.853 328.145 268.882 328.213 268.94C328.281 268.989 328.353 269.066 328.431 269.172L329.504 270.912C328.982 271.347 328.382 271.676 327.706 271.898C327.029 272.121 326.328 272.232 325.603 272.232ZM344.948 257.123L336.843 276.089C336.736 276.34 336.596 276.529 336.422 276.655C336.258 276.79 336.002 276.858 335.654 276.858H332.986L335.77 270.883L329.752 257.123H332.899C333.179 257.123 333.396 257.191 333.551 257.326C333.715 257.461 333.836 257.616 333.914 257.79L337.075 265.504C337.181 265.765 337.268 266.026 337.336 266.287C337.413 266.548 337.485 266.814 337.553 267.084C337.64 266.814 337.727 266.548 337.814 266.287C337.901 266.016 337.998 265.75 338.104 265.489L341.091 257.79C341.168 257.597 341.294 257.437 341.468 257.311C341.652 257.186 341.855 257.123 342.077 257.123H344.948Z" fill="#004040"/>
<path d="M234.25 133H230.335V112.033H234.25V133ZM241.501 119.95C241.801 119.65 242.115 119.375 242.444 119.123C242.782 118.862 243.135 118.645 243.502 118.471C243.879 118.287 244.28 118.147 244.706 118.05C245.131 117.944 245.595 117.891 246.098 117.891C246.91 117.891 247.63 118.031 248.258 118.311C248.887 118.582 249.409 118.969 249.824 119.471C250.25 119.964 250.569 120.559 250.781 121.255C251.004 121.941 251.115 122.7 251.115 123.531V133H247.533V123.531C247.533 122.623 247.325 121.922 246.91 121.429C246.494 120.926 245.861 120.675 245.01 120.675C244.392 120.675 243.812 120.815 243.27 121.095C242.729 121.376 242.217 121.758 241.733 122.241V133H238.152V118.123H240.341C240.805 118.123 241.11 118.34 241.255 118.775L241.501 119.95ZM257.87 119.95C258.17 119.65 258.484 119.375 258.813 119.123C259.151 118.862 259.504 118.645 259.871 118.471C260.248 118.287 260.65 118.147 261.075 118.05C261.5 117.944 261.964 117.891 262.467 117.891C263.279 117.891 263.999 118.031 264.627 118.311C265.256 118.582 265.778 118.969 266.193 119.471C266.619 119.964 266.938 120.559 267.15 121.255C267.373 121.941 267.484 122.7 267.484 123.531V133H263.902V123.531C263.902 122.623 263.695 121.922 263.279 121.429C262.863 120.926 262.23 120.675 261.379 120.675C260.761 120.675 260.181 120.815 259.639 121.095C259.098 121.376 258.586 121.758 258.102 122.241V133H254.521V118.123H256.71C257.174 118.123 257.479 118.34 257.624 118.775L257.87 119.95ZM277.473 117.891C278.575 117.891 279.576 118.07 280.475 118.428C281.383 118.785 282.157 119.293 282.795 119.95C283.442 120.607 283.94 121.41 284.288 122.357C284.636 123.304 284.81 124.363 284.81 125.532C284.81 126.712 284.636 127.775 284.288 128.722C283.94 129.67 283.442 130.477 282.795 131.144C282.157 131.811 281.383 132.323 280.475 132.681C279.576 133.039 278.575 133.218 277.473 133.218C276.361 133.218 275.351 133.039 274.443 132.681C273.534 132.323 272.756 131.811 272.108 131.144C271.47 130.477 270.972 129.67 270.615 128.722C270.267 127.775 270.093 126.712 270.093 125.532C270.093 124.363 270.267 123.304 270.615 122.357C270.972 121.41 271.47 120.607 272.108 119.95C272.756 119.293 273.534 118.785 274.443 118.428C275.351 118.07 276.361 117.891 277.473 117.891ZM277.473 130.462C278.71 130.462 279.624 130.047 280.214 129.215C280.813 128.384 281.113 127.166 281.113 125.561C281.113 123.957 280.813 122.734 280.214 121.893C279.624 121.052 278.71 120.631 277.473 120.631C276.216 120.631 275.284 121.057 274.675 121.907C274.075 122.748 273.776 123.966 273.776 125.561C273.776 127.156 274.075 128.374 274.675 129.215C275.284 130.047 276.216 130.462 277.473 130.462ZM300.502 118.123L294.6 133H291.352L285.451 118.123H288.409C288.679 118.123 288.902 118.186 289.076 118.311C289.259 118.437 289.38 118.597 289.438 118.79L292.309 126.736C292.464 127.2 292.599 127.654 292.715 128.099C292.831 128.544 292.933 128.988 293.02 129.433C293.116 128.988 293.223 128.544 293.339 128.099C293.455 127.654 293.595 127.2 293.759 126.736L296.688 118.79C296.756 118.597 296.877 118.437 297.051 118.311C297.225 118.186 297.433 118.123 297.674 118.123H300.502ZM309.901 126.649C308.867 126.697 307.997 126.789 307.291 126.924C306.586 127.05 306.02 127.214 305.595 127.417C305.17 127.62 304.865 127.857 304.681 128.128C304.498 128.399 304.406 128.693 304.406 129.012C304.406 129.641 304.59 130.09 304.957 130.361C305.334 130.632 305.822 130.767 306.421 130.767C307.156 130.767 307.789 130.636 308.321 130.375C308.862 130.105 309.389 129.699 309.901 129.157V126.649ZM301.694 120.196C303.405 118.63 305.464 117.847 307.871 117.847C308.741 117.847 309.52 117.992 310.206 118.282C310.892 118.563 311.472 118.959 311.946 119.471C312.42 119.974 312.777 120.578 313.019 121.284C313.27 121.99 313.396 122.763 313.396 123.604V133H311.772C311.434 133 311.173 132.952 310.989 132.855C310.805 132.749 310.66 132.541 310.554 132.231L310.235 131.158C309.858 131.497 309.491 131.796 309.133 132.057C308.775 132.309 308.403 132.521 308.016 132.695C307.63 132.869 307.214 133 306.769 133.087C306.334 133.184 305.851 133.232 305.319 133.232C304.691 133.232 304.111 133.15 303.579 132.985C303.048 132.811 302.589 132.555 302.202 132.217C301.815 131.879 301.516 131.458 301.303 130.955C301.09 130.453 300.984 129.868 300.984 129.201C300.984 128.824 301.047 128.452 301.172 128.084C301.298 127.707 301.501 127.35 301.781 127.011C302.071 126.673 302.444 126.354 302.898 126.054C303.352 125.755 303.908 125.494 304.565 125.271C305.232 125.049 306.006 124.87 306.885 124.735C307.765 124.59 308.77 124.503 309.901 124.474V123.604C309.901 122.608 309.689 121.874 309.263 121.4C308.838 120.917 308.224 120.675 307.422 120.675C306.842 120.675 306.359 120.743 305.972 120.878C305.595 121.013 305.261 121.168 304.971 121.342C304.681 121.506 304.416 121.656 304.174 121.791C303.942 121.927 303.681 121.994 303.391 121.994C303.14 121.994 302.927 121.932 302.753 121.806C302.579 121.671 302.439 121.516 302.332 121.342L301.694 120.196ZM331.578 133H327.997V120.805H321.095V128.867C321.095 129.331 321.206 129.694 321.428 129.955C321.66 130.216 321.974 130.346 322.371 130.346C322.593 130.346 322.777 130.322 322.922 130.274C323.076 130.216 323.207 130.158 323.313 130.1C323.429 130.042 323.531 129.989 323.618 129.94C323.705 129.882 323.792 129.853 323.879 129.853C323.985 129.853 324.072 129.882 324.14 129.94C324.207 129.989 324.28 130.066 324.357 130.172L325.43 131.912C324.908 132.347 324.309 132.676 323.632 132.898C322.956 133.121 322.255 133.232 321.53 133.232C320.234 133.232 319.239 132.869 318.543 132.144C317.856 131.41 317.513 130.4 317.513 129.114V120.805H315.991C315.797 120.805 315.633 120.743 315.498 120.617C315.362 120.491 315.295 120.303 315.295 120.051V118.63L317.687 118.224L318.441 114.179C318.49 113.986 318.581 113.836 318.717 113.729C318.852 113.623 319.026 113.57 319.239 113.57H321.095V118.253H331.578V133ZM332.202 113.729C332.202 114.039 332.139 114.334 332.013 114.614C331.888 114.885 331.718 115.121 331.506 115.324C331.303 115.527 331.056 115.692 330.766 115.817C330.486 115.933 330.186 115.991 329.867 115.991C329.558 115.991 329.268 115.933 328.997 115.817C328.727 115.692 328.49 115.527 328.287 115.324C328.084 115.121 327.919 114.885 327.794 114.614C327.678 114.334 327.62 114.039 327.62 113.729C327.62 113.41 327.678 113.116 327.794 112.845C327.919 112.565 328.084 112.323 328.287 112.12C328.49 111.907 328.727 111.743 328.997 111.627C329.268 111.501 329.558 111.438 329.867 111.438C330.186 111.438 330.486 111.501 330.766 111.627C331.056 111.743 331.303 111.907 331.506 112.12C331.718 112.323 331.888 112.565 332.013 112.845C332.139 113.116 332.202 113.41 332.202 113.729ZM341.817 117.891C342.919 117.891 343.919 118.07 344.818 118.428C345.727 118.785 346.5 119.293 347.138 119.95C347.786 120.607 348.284 121.41 348.632 122.357C348.98 123.304 349.154 124.363 349.154 125.532C349.154 126.712 348.98 127.775 348.632 128.722C348.284 129.67 347.786 130.477 347.138 131.144C346.5 131.811 345.727 132.323 344.818 132.681C343.919 133.039 342.919 133.218 341.817 133.218C340.705 133.218 339.695 133.039 338.786 132.681C337.878 132.323 337.1 131.811 336.452 131.144C335.814 130.477 335.316 129.67 334.958 128.722C334.61 127.775 334.436 126.712 334.436 125.532C334.436 124.363 334.61 123.304 334.958 122.357C335.316 121.41 335.814 120.607 336.452 119.95C337.1 119.293 337.878 118.785 338.786 118.428C339.695 118.07 340.705 117.891 341.817 117.891ZM341.817 130.462C343.054 130.462 343.968 130.047 344.557 129.215C345.157 128.384 345.456 127.166 345.456 125.561C345.456 123.957 345.157 122.734 344.557 121.893C343.968 121.052 343.054 120.631 341.817 120.631C340.56 120.631 339.627 121.057 339.018 121.907C338.419 122.748 338.119 123.966 338.119 125.561C338.119 127.156 338.419 128.374 339.018 129.215C339.627 130.047 340.56 130.462 341.817 130.462ZM355.236 119.95C355.535 119.65 355.85 119.375 356.178 119.123C356.517 118.862 356.869 118.645 357.237 118.471C357.614 118.287 358.015 118.147 358.44 118.05C358.866 117.944 359.33 117.891 359.832 117.891C360.644 117.891 361.364 118.031 361.993 118.311C362.621 118.582 363.143 118.969 363.559 119.471C363.984 119.964 364.303 120.559 364.516 121.255C364.738 121.941 364.849 122.7 364.849 123.531V133H361.268V123.531C361.268 122.623 361.06 121.922 360.644 121.429C360.229 120.926 359.595 120.675 358.745 120.675C358.126 120.675 357.546 120.815 357.005 121.095C356.463 121.376 355.951 121.758 355.468 122.241V133H351.886V118.123H354.076C354.54 118.123 354.844 118.34 354.989 118.775L355.236 119.95Z" fill="#004040"/>
</svg>
