<svg width="298" height="68" viewBox="0 0 298 68" fill="none" xmlns="http://www.w3.org/2000/svg">
<path d="M153.692 0.359158C150.831 1.53365 150.092 4.86923 152.123 7.31218C153.092 8.48668 153.646 8.76855 155.169 8.76855C157.477 8.76855 158.585 8.15782 159.508 6.37258C161.308 2.80211 157.477 -1.23816 153.692 0.359158Z" fill="#004040"/>
<path d="M215.259 27.3324C212.397 28.5069 211.659 31.8425 213.69 34.2854C214.659 35.4599 215.213 35.7418 216.736 35.7418C219.043 35.7418 220.151 35.1311 221.074 33.3458C222.874 29.7754 219.043 25.7351 215.259 27.3324Z" fill="#004040"/>
<path d="M77.3076 1.34569C77.1692 1.67455 77.123 9.47321 77.1692 18.6343L77.3076 35.3121H81.2307H85.1538L85.3845 27.4665C85.6615 18.6343 85.7999 18.2584 88.8922 17.8356C90.2769 17.6477 90.9692 17.8356 91.8461 18.5403C92.9538 19.4799 92.9999 19.6678 93.2307 27.4195L93.4615 35.3121H97.3846H101.308V25.9162C101.308 17.6007 101.215 16.3323 100.431 14.735C98.1692 10.0839 90.923 8.81549 86.8153 12.339L85.4307 13.5135L85.2922 7.26515L85.1538 1.01683L81.323 0.875893C78.5538 0.781933 77.4461 0.922871 77.3076 1.34569Z" fill="#004040"/>
<path d="M62.9999 4.96316C62.4922 5.19806 60.4614 7.17121 58.4768 9.42624C54.923 13.3726 54.8768 13.4665 55.0153 15.6746C55.1537 17.8356 55.246 17.9296 56.5845 18.0705L58.0614 18.2115L58.246 24.4598C58.4307 31.037 58.7999 32.2585 61.1076 34.2316C63.6922 36.3457 68.9076 36.4866 72.7383 34.5605C75.5537 33.1511 75.7845 32.0705 73.846 29.1578C72.5999 27.3726 72.1845 27.0437 71.3537 27.3256C70.846 27.5135 69.646 27.7014 68.7691 27.7484L67.1537 27.7954L67.0153 22.9564L66.8768 18.1645H69.5999C71.0768 18.1645 72.5076 17.9296 72.8307 17.6007C73.3845 17.037 73.5691 13.1377 73.1076 11.8692C72.8768 11.3054 72.1383 11.1175 69.8768 11.1175H66.923V8.39269C66.923 6.88933 66.6922 5.43295 66.3691 5.1041C65.723 4.44638 64.3845 4.3994 62.9999 4.96316Z" fill="#004040"/>
<path d="M285.923 4.96319C284.308 5.62091 277.984 13.0907 277.661 14.735C277.2 16.8021 277.984 18.1645 279.646 18.1645H280.984L281.169 24.3659C281.308 31.3659 281.908 33.0572 284.861 34.8424C287.123 36.2518 292.569 36.1578 295.523 34.7015C298.431 33.1981 298.661 32.1176 296.677 29.2518C295.477 27.4666 294.969 27.0907 294.231 27.3726C293.723 27.5135 292.569 27.7015 291.692 27.7484L290.077 27.7954L289.938 22.9565L289.8 18.1645H292.569C295.754 18.1645 296.308 17.6008 296.308 14.4531C296.308 11.3055 296.077 11.1176 292.8 11.1176H289.846V8.72158C289.846 4.91621 288.738 3.83567 285.923 4.96319Z" fill="#004040"/>
<path d="M8.72308 10.7886C3.36923 12.8557 0 17.6477 0 23.3322C0 27.9832 3.04615 33.0571 7.06154 35.0302C9.73846 36.3457 14.4 36.3926 16.4769 35.1242C17.7692 34.3255 18 34.2785 18.5077 34.8893C18.9231 35.4061 19.9385 35.547 22.5692 35.453L26.0769 35.3121L26.2154 23.1913L26.3077 11.1175H22.4769C20.3077 11.1175 18.4154 11.3524 18.1385 11.6342C17.7692 12.0101 17.3077 11.9161 16.4769 11.3524C14.8615 10.3188 10.8 9.98994 8.72308 10.7886ZM15.7385 18.9161C16.5231 19.292 17.4462 20.3255 17.8154 21.2181C19.8462 26.151 13.8923 30.5201 10.1538 26.8557C9.46154 26.151 8.72308 25.0705 8.53846 24.4128C8.12308 22.5805 9.13846 20.0906 10.8 19.0571C12.5538 17.9765 13.8923 17.9295 15.7385 18.9161Z" fill="#004040"/>
<path d="M112.662 11.0235C109.662 12.151 108.185 13.2316 106.292 15.7685C104.446 18.2114 103.708 20.8893 103.938 24.2718C104.169 27.4665 105.369 30.0504 107.631 32.3054C110.262 34.8893 112.292 35.7349 116.585 35.9229C120.923 36.1578 123.231 35.3591 126.185 32.7282C130.154 29.1578 131.538 22.7685 129.323 18.0705C128.077 15.5336 124.8 12.292 122.492 11.3054C119.723 10.1309 115.477 10.0369 112.662 11.0235ZM120.277 19.7618C121.523 21.0302 121.846 21.7349 121.846 23.2383C121.846 26.8557 118.431 29.2047 115.2 27.8423C111.831 26.4329 111.231 21.7819 114.046 19.3859C116.123 17.6007 118.292 17.7416 120.277 19.7618Z" fill="#004040"/>
<path d="M193.477 11.0236C190.431 12.1511 187.754 14.735 186.415 17.8357C185.585 19.8558 185.446 20.8894 185.631 24.084C185.815 27.2786 186.046 28.2182 187.2 30.0974C189.877 34.4196 193.708 36.2518 199.569 35.9229C203.861 35.688 206.354 34.6075 208.385 32.1645L209.631 30.6612L208.338 29.5807C207.6 29.0169 206.354 28.1713 205.523 27.7015C204.185 26.9498 203.861 26.9498 202.938 27.5605C200.446 29.1578 199.292 29.5337 197.677 29.2048C196.108 28.9229 193.846 27.1377 193.846 26.1981C193.846 25.8692 196.754 25.6343 201.831 25.5874L209.769 25.4464L209.908 22.5337C210.046 19.2451 209.169 16.6612 207.046 14.0773C204.277 10.7417 198.092 9.37931 193.477 11.0236ZM200.492 17.7417C202.708 19.48 202.108 20.0437 198 20.0437C194.123 20.0437 193.431 19.5739 195.138 18.0706C196.846 16.5203 198.785 16.3793 200.492 17.7417Z" fill="#004040"/>
<path d="M238.015 10.6477C237.277 10.8826 235.985 11.5873 235.108 12.292L233.538 13.5134V12.292V11.0705L229.523 11.2114L225.461 11.3524V23.3322V35.3121H229.385H233.308L233.538 27.6544L233.769 19.9497L235.061 18.8222C236.631 17.4597 238.569 17.3658 240.185 18.6812L241.385 19.6208V27.0436C241.385 32.1644 241.569 34.6074 241.938 34.9832C242.261 35.3121 243.923 35.547 246.092 35.547C249.554 35.547 249.692 35.5 249.969 34.3725C250.108 33.7148 250.154 29.6275 250.061 25.3054C249.877 16.943 249.277 14.4061 247.015 12.3859C244.985 10.5067 240.969 9.75505 238.015 10.6477Z" fill="#004040"/>
<path d="M261.369 10.6007C253.431 12.6678 249.692 22.3457 253.892 29.8155C255.369 32.4464 257.584 34.3725 260.169 35.3591C262.523 36.2047 268.015 36.1578 270.507 35.3121C273.046 34.4195 276 32.0235 276 30.896C276 30.1443 271.938 27.0907 270.923 27.0907C270.738 27.0907 269.492 27.6544 268.246 28.3121C266.538 29.2047 265.569 29.4396 264.507 29.2047C262.8 28.8289 260.769 27.2786 260.769 26.339C260.769 25.7752 262.107 25.6813 268.338 25.6813C277.2 25.6813 277.2 25.6813 276.784 21.547C276.415 17.0839 274.107 13.4665 270.415 11.5873C268.384 10.5068 263.677 9.98998 261.369 10.6007ZM267.831 18.2115C268.246 18.7752 268.615 19.386 268.615 19.6209C268.615 19.8558 266.861 20.0437 264.692 20.0437C262.523 20.0437 260.769 19.8558 260.769 19.6209C260.769 19.386 261.415 18.6343 262.246 17.9296C263.446 16.896 264.046 16.7081 265.338 16.943C266.261 17.0839 267.369 17.6477 267.831 18.2115Z" fill="#004040"/>
<path d="M144.231 11.2115C143.723 11.4933 142.846 12.1511 142.292 12.6678L141.231 13.6074L140.261 12.386C139.384 11.2115 139.015 11.1175 136.107 11.1175H132.923L133.015 23.1913L133.154 35.3121H137.077H141L141.231 28.1242C141.415 22.4397 141.6 20.8423 142.154 20.5135C142.523 20.2316 144.046 20.1846 145.477 20.3256L148.107 20.6074L148.523 18.8222C149.446 15.1578 149.538 12.1041 148.8 11.3524C147.969 10.5537 145.569 10.4598 144.231 11.2115Z" fill="#004040"/>
<path d="M29.5386 19.5739C29.5386 26.1511 29.677 28.4531 30.2309 29.8155C31.8924 33.8558 35.677 36.0168 41.0309 36.0168C45.2309 36.0168 47.4463 35.3591 49.6617 33.5269C52.6617 30.99 53.077 29.4397 53.077 19.6679V11.0705L49.0617 11.2115L45.0001 11.3524L44.7693 19.245C44.5386 26.386 44.4463 27.2316 43.6617 27.8423C42.4617 28.735 39.9232 28.688 39.0463 27.7484C37.9847 26.7148 37.8463 25.7283 37.7078 18.1645L37.6155 11.3524L33.6001 11.2115L29.5386 11.0705V19.5739Z" fill="#004040"/>
<path d="M151.477 23.1913L151.616 35.3121H155.539H159.462V23.3323V11.3524L155.4 11.2115L151.385 11.0705L151.477 23.1913Z" fill="#004040"/>
<path d="M162.646 11.7283C162.508 12.1041 162.462 13.6545 162.554 15.1578L162.692 17.9296L167.446 18.0706C170.031 18.1176 172.154 18.3525 172.154 18.5404C172.154 18.7283 170.908 20.1377 169.338 21.688C167.769 23.2384 165.508 25.7283 164.262 27.2317C162.231 29.6746 162 30.1914 162 32.2115C162 33.5739 162.277 34.7015 162.646 35.0303C163.062 35.4062 166.385 35.5471 173.585 35.4531L183.923 35.3122L184.062 31.9296C184.2 27.9364 184.477 28.0773 178.015 27.8894L173.954 27.7954L178.846 22.3927L183.692 16.99L183.6 14.1713L183.462 11.3525L173.169 11.2115C164.769 11.1176 162.877 11.2115 162.646 11.7283Z" fill="#004040"/>
<path d="M135.508 58.0034C133.846 62.6075 132.461 66.5538 132.461 66.6947C132.461 66.8826 132.923 67.0236 133.523 67.0236C134.4 67.0236 134.723 66.6008 135.277 64.7685L135.969 62.5605L139.661 62.4195L143.354 62.2786L144.046 64.5336C144.6 66.4128 144.923 66.8357 145.938 66.9296L147.138 67.0706L144.046 58.4732C141.185 50.5806 140.861 49.8759 139.754 49.735C138.646 49.594 138.461 49.9229 135.508 58.0034ZM141.185 56.3591C142.615 60.3524 142.569 60.4464 139.615 60.4464C138.231 60.4464 137.077 60.2585 137.077 60.0236C137.077 58.8961 139.569 52.9296 139.846 53.2585C140.031 53.4464 140.631 54.8558 141.185 56.3591Z" fill="#004040"/>
<path d="M152.769 49.9698C152.769 50.2047 154.061 54.0571 155.677 58.5671C158.538 66.6947 158.584 66.7886 160.015 66.9296C161.308 67.0705 161.492 66.9296 162.138 65.0504C162.508 63.9228 163.892 60.0235 165.184 56.3121L167.538 49.594L166.292 49.7349C165.184 49.8759 164.908 50.3926 162.738 56.7819C161.446 60.5873 160.246 63.8289 160.061 63.9698C159.923 64.1108 158.723 60.9631 157.384 56.9228C155.169 50.2987 154.846 49.641 153.877 49.641C153.277 49.641 152.769 49.7819 152.769 49.9698Z" fill="#004040"/>
<path d="M169.708 49.9699C169.523 50.1108 169.385 50.7686 169.385 51.3793C169.385 52.2719 169.616 52.4598 170.769 52.4598C172.016 52.4598 172.154 52.3189 172.154 51.0504C172.154 49.8759 171.969 49.641 171.092 49.641C170.492 49.641 169.846 49.782 169.708 49.9699Z" fill="#004040"/>
<path d="M208.985 50.3457C207.461 51.2383 206.769 52.4128 206.769 54.245C206.769 56.5471 208.292 57.9565 211.892 59.037C216.554 60.4464 217.846 61.9967 216.092 64.2048C214.292 66.5068 209.769 65.8021 208.523 62.9833C208.246 62.3726 207.646 61.8558 207.138 61.8558C205.246 61.8558 206.861 65.5672 209.261 66.7417C213.508 68.8088 218.769 66.4598 218.769 62.5135C218.769 60.1175 217.338 58.8021 213.231 57.3927C208.661 55.8424 207.6 54.433 209.538 52.4598C210.554 51.4263 213.138 51.1914 214.661 52.037C215.169 52.2719 215.769 53.0236 216 53.6813C216.277 54.339 216.785 54.8088 217.385 54.8088C218.723 54.8088 218.538 53.2115 216.969 51.4263C215.861 50.1108 215.354 49.9229 212.954 49.782C211.108 49.688 209.815 49.8759 208.985 50.3457Z" fill="#004040"/>
<path d="M236.308 58.3323C236.308 66.6947 236.354 67.0236 237.231 67.0236C238.108 67.0236 238.154 66.6947 238.154 58.3323C238.154 49.9699 238.108 49.641 237.231 49.641C236.354 49.641 236.308 49.9699 236.308 58.3323Z" fill="#004040"/>
<path d="M266.169 49.9699C265.985 50.1108 265.846 50.7686 265.846 51.3793C265.846 52.2719 266.077 52.4598 267.231 52.4598C268.477 52.4598 268.615 52.3189 268.615 51.0504C268.615 49.8759 268.431 49.641 267.554 49.641C266.954 49.641 266.308 49.782 266.169 49.9699Z" fill="#004040"/>
<path d="M257.077 52.9296C257.077 54.6209 256.984 54.8088 255.923 54.8088C255.092 54.8088 254.769 55.0437 254.769 55.7484C254.769 56.4531 255.092 56.688 255.923 56.688C257.077 56.688 257.077 56.688 257.077 61.0571C257.077 65.0504 257.169 65.5672 258.138 66.4598C259.754 68.0102 263.538 67.7753 263.538 66.131C263.538 65.4733 263.215 65.3793 261.923 65.5202C259.338 65.8491 258.923 65.1444 258.923 60.6343V56.688H261C262.754 56.688 263.077 56.5471 263.077 55.7484C263.077 54.9498 262.754 54.8088 261 54.8088H258.923V52.9296C258.923 51.3793 258.784 51.0504 258 51.0504C257.215 51.0504 257.077 51.3793 257.077 52.9296Z" fill="#004040"/>
<path d="M176.769 55.1846C173.4 56.8759 174 60.3994 177.785 61.386C181.385 62.2786 182.077 62.5605 182.215 63.4061C182.492 64.7685 181.431 65.6141 179.538 65.6141C178.2 65.6141 177.554 65.3323 176.861 64.4396C175.8 63.0772 174.461 62.8893 174.461 64.1108C174.461 66.8356 179.769 68.4329 182.677 66.6007C183.923 65.7551 184.154 65.3792 184.154 63.7349C184.154 61.5269 183.185 60.6813 180.092 60.1645C178.985 59.9766 177.646 59.4598 177.092 59.037C176.123 58.1913 176.077 58.1913 176.954 57.2047C178.061 55.9363 180.185 55.9363 181.385 57.1578C181.892 57.6745 182.723 58.0974 183.231 58.0974C184.108 58.0974 184.154 58.0034 183.508 56.7349C182.815 55.4665 180.785 54.339 179.123 54.339C178.708 54.339 177.646 54.7148 176.769 55.1846Z" fill="#004040"/>
<path d="M189.831 55.0437C188.446 55.6544 187.385 56.9699 187.385 58.0504C187.385 58.99 188.862 58.5672 189.969 57.3927C190.569 56.735 191.539 56.2182 192.231 56.2182C193.569 56.2182 195.231 57.7216 195.231 58.896C195.231 59.6477 194.769 59.7417 191.954 59.7417C189.092 59.7417 188.585 59.8826 187.8 60.8692C186.231 62.8424 186.692 65.7081 188.815 66.7887C190.477 67.6813 192.139 67.6813 193.846 66.7887C194.631 66.3658 195.231 66.2719 195.231 66.5538C195.231 66.7887 195.692 67.0236 196.292 67.0236C197.308 67.0236 197.308 66.9766 197.077 61.9967C196.939 59.1779 196.662 56.641 196.431 56.2652C195.969 55.5135 193.292 54.339 192.139 54.339C191.677 54.386 190.662 54.6679 189.831 55.0437ZM194.862 62.7954C194.723 64.3457 193.154 65.6142 191.354 65.6142C189.646 65.6142 188.769 64.9095 188.769 63.5001C188.769 61.8558 189.692 61.339 192.462 61.4799C194.862 61.6209 195 61.6679 194.862 62.7954Z" fill="#004040"/>
<path d="M224.492 55.2317C220.015 57.2988 219.923 64.4867 224.354 66.8357C226.154 67.7283 229.246 67.5404 231.046 66.3189C233.723 64.5807 234.277 59.2719 232.108 56.829C230.908 55.5605 228.554 54.3391 227.215 54.3391C226.754 54.3391 225.554 54.7619 224.492 55.2317ZM229.385 56.9229C232.015 58.2854 232.2 63.1243 229.708 64.9095C226.015 67.5404 221.538 63.0773 223.569 58.7552C224.677 56.3592 226.938 55.6545 229.385 56.9229Z" fill="#004040"/>
<path d="M274.292 55.3256C268.523 58.2384 270.646 67.4934 277.061 67.4934C282 67.4934 284.815 62.5135 282.6 57.7686C282.092 56.6411 281.215 55.7954 279.969 55.2317C277.523 54.1041 276.646 54.1041 274.292 55.3256ZM279.184 56.876C281.4 58.0505 282.092 60.7753 280.846 63.2652C279.046 66.7887 274.477 66.3659 273.231 62.5605C272.538 60.3994 273.323 57.8625 274.984 56.9229C276.554 56.0773 277.569 56.0773 279.184 56.876Z" fill="#004040"/>
<path d="M289.615 55.0907C288.738 55.5605 288.185 55.6075 288.092 55.3256C288 55.0437 287.538 54.8088 287.031 54.8088C286.2 54.8088 286.154 55.2316 286.154 60.9162C286.154 66.6947 286.2 67.0236 287.077 67.0236C287.954 67.0236 288 66.6947 288 62.7954C288 58.896 288.092 58.4262 289.154 57.3927C290.4 56.0773 292.015 55.8893 293.308 56.8759C294.046 57.4397 294.231 58.2853 294.369 62.2786C294.554 66.5538 294.646 67.0236 295.431 67.0236C296.215 67.0236 296.308 66.6477 296.308 62.8424C296.308 57.8625 295.754 55.9363 293.954 55.0437C292.292 54.1511 291.323 54.1511 289.615 55.0907Z" fill="#004040"/>
<path d="M169.846 60.9162C169.846 66.6947 169.892 67.0236 170.769 67.0236C171.646 67.0236 171.692 66.6947 171.692 60.9162C171.692 55.1377 171.646 54.8088 170.769 54.8088C169.892 54.8088 169.846 55.1377 169.846 60.9162Z" fill="#004040"/>
<path d="M241.477 60.0236C241.615 65.0504 241.661 65.2853 242.908 66.3659C244.384 67.6813 246.369 67.8222 248.308 66.7887C249.092 66.3659 249.692 66.2719 249.692 66.5538C249.692 66.7887 250.108 67.0236 250.615 67.0236C251.492 67.0236 251.538 66.6947 251.538 60.9162C251.538 55.1377 251.492 54.8088 250.615 54.8088C249.738 54.8088 249.692 55.1377 249.692 59.1779C249.692 63.2182 249.6 63.641 248.584 64.6276C247.8 65.3793 247.061 65.6612 245.954 65.5202C243.831 65.3323 243.231 63.9229 243.231 58.8961C243.231 55.0437 243.184 54.8088 242.261 54.8088C241.338 54.8088 241.292 54.9967 241.477 60.0236Z" fill="#004040"/>
<path d="M266.308 60.9162C266.308 66.6947 266.354 67.0236 267.231 67.0236C268.108 67.0236 268.154 66.6947 268.154 60.9162C268.154 55.1377 268.108 54.8088 267.231 54.8088C266.354 54.8088 266.308 55.1377 266.308 60.9162Z" fill="#004040"/>
</svg>
