<svg width="309" height="37" viewBox="0 0 309 37" fill="none" xmlns="http://www.w3.org/2000/svg">
<path d="M8.91524 23.7915C8.91524 25.2184 9.40231 26.4258 10.373 27.4273C11.354 28.4289 12.5511 28.9263 13.9472 28.9263C15.3535 28.9263 16.5506 28.4289 17.5316 27.4273C18.5023 26.4258 18.9894 25.2184 18.9894 23.7915C18.9894 22.3748 18.5023 21.1572 17.5316 20.1556C16.5506 19.154 15.3535 18.6566 13.9472 18.6566C12.5477 18.6566 11.354 19.154 10.373 20.1556C9.40231 21.1606 8.91524 22.3748 8.91524 23.7915ZM18.883 35.0764V34.6511C18.0633 35.4297 17.1509 36.0197 16.1287 36.4141C15.1065 36.7983 13.9815 37.0007 12.7844 37.0007C9.22052 37.0007 6.2192 35.7247 3.7907 33.1727C1.35878 30.631 0.144531 27.4994 0.144531 23.7915C0.144531 20.0836 1.35878 16.9656 3.7907 14.4102C6.22263 11.8582 9.22052 10.5925 12.7844 10.5925C13.978 10.5925 15.1031 10.7846 16.1287 11.1688C17.1509 11.5632 18.0633 12.1395 18.883 12.9113V12.4653C18.883 12.1223 18.9962 11.8376 19.2055 11.6147C19.4284 11.402 19.7131 11.2923 20.0458 11.2923H26.4258C26.7688 11.2923 27.0535 11.4055 27.2764 11.6147C27.4891 11.8376 27.5989 12.1223 27.5989 12.4653V35.073C27.5989 35.3954 27.4857 35.6801 27.2559 35.9134C27.0329 36.1466 26.7688 36.2666 26.4567 36.2666H20.0973C19.7749 36.2666 19.4902 36.1466 19.2466 35.9134C19.0065 35.687 18.883 35.4023 18.883 35.0764Z" fill="#004040"/>
<path d="M42.9714 29.2029C44.117 29.2029 44.978 28.877 45.5645 28.2219C46.151 27.5633 46.446 26.5994 46.446 25.3337V12.3166C46.446 12.0319 46.5661 11.7884 46.8199 11.5757C47.0737 11.363 47.3584 11.2601 47.6706 11.2601H53.9716C54.2872 11.2601 54.5685 11.3596 54.8223 11.5757C55.0658 11.7884 55.1962 12.0319 55.1962 12.3166V26.5068C55.1962 29.5562 54.0917 32.067 51.8827 34.0324C49.684 36.0081 46.7273 36.9891 43.0194 36.9891C39.2806 36.9891 36.2827 35.9978 34.0154 34.0118C31.7447 32.0258 30.6128 29.5253 30.6128 26.5068V12.3166C30.6128 12.0319 30.7328 11.7884 30.9764 11.5757C31.2199 11.363 31.4943 11.2601 31.8065 11.2601H38.1178C38.4334 11.2601 38.7146 11.3596 38.9788 11.5757C39.2326 11.7884 39.3629 12.0319 39.3629 12.3166V25.3337C39.3629 26.5686 39.6785 27.5221 40.2959 28.2013C40.9236 28.8701 41.8154 29.2029 42.9714 29.2029Z" fill="#004040"/>
<path d="M69.5215 36.7386C66.7877 36.7386 64.6096 36.0182 62.9666 34.5913C61.3373 33.1541 60.5141 31.1784 60.5141 28.6436V18.4837H57.9416C57.626 18.4837 57.355 18.3739 57.1321 18.1304C56.9091 17.8971 56.7891 17.6124 56.7891 17.2694V15.4652C56.7891 14.9267 56.8405 14.5014 56.94 14.1687C57.0429 13.8428 57.235 13.5307 57.4957 13.2254L63.7041 6.33779C64.2426 5.76153 64.6782 5.37394 65.0315 5.21272C65.3848 5.04122 65.841 4.94861 66.4001 4.94861H68.0706C68.393 4.94861 68.6777 5.05837 68.9007 5.29161C69.1339 5.51457 69.2437 5.78897 69.2437 6.12169V11.2565H74.7352C75.0611 11.2565 75.3424 11.3663 75.5756 11.5995C75.8088 11.8225 75.9289 12.0969 75.9289 12.4296V17.2626C75.9289 17.6056 75.8088 17.8903 75.5756 18.1235C75.3424 18.3671 75.0577 18.4768 74.7352 18.4768H69.2437V26.8016C69.2437 27.4087 69.4049 27.8958 69.7307 28.2388C70.0635 28.5921 70.5094 28.7739 71.0685 28.7739C71.4012 28.7739 71.7476 28.7053 72.1215 28.5715C72.5057 28.4378 72.931 28.2285 73.4181 27.9438C73.9052 27.6694 74.3099 27.57 74.6426 27.6489C74.9856 27.7175 75.3012 27.9747 75.5962 28.4L77.8051 31.7032C78.0487 32.0771 78.1687 32.4544 78.1482 32.8283C78.1379 33.2021 77.9869 33.5383 77.7125 33.8093C76.8207 34.7217 75.6373 35.4283 74.1761 35.9462C72.7218 36.4779 71.1714 36.7386 69.5215 36.7386Z" fill="#004040"/>
<path d="M92.6472 18.1336C91.4604 18.1336 90.4897 18.5075 89.7214 19.2484C88.953 19.9996 88.5757 20.9909 88.5757 22.2463V35.0713C88.5757 35.4143 88.466 35.699 88.243 35.922C88.0303 36.1347 87.7456 36.2479 87.4026 36.2479H81.0227C80.6797 36.2479 80.395 36.1381 80.1823 35.922C79.9594 35.699 79.8496 35.4143 79.8496 35.0713V2.10144C79.8496 1.75843 79.9594 1.47374 80.1823 1.25079C80.395 1.03812 80.6797 0.924927 81.0227 0.924927H87.4026C87.7456 0.924927 88.0303 1.03469 88.243 1.25079C88.466 1.47374 88.5757 1.75843 88.5757 2.10144V14.2473C89.3646 13.0434 90.3799 12.131 91.6148 11.5033C92.8393 10.8756 94.2491 10.56 95.8372 10.56C98.986 10.56 101.366 11.5033 102.979 13.3658C104.601 15.2386 105.411 17.9552 105.411 21.5191V35.0713C105.411 35.4143 105.301 35.699 105.088 35.922C104.865 36.1347 104.58 36.2479 104.237 36.2479H97.8644C97.5111 36.2479 97.2367 36.1381 97.0137 35.922C96.801 35.699 96.6879 35.4143 96.6879 35.0713V22.2463C96.6879 20.9909 96.314 19.9962 95.5628 19.2484C94.8047 18.5075 93.8409 18.1336 92.6472 18.1336Z" fill="#004040"/>
<path d="M116.321 23.766C116.321 25.1929 116.808 26.4002 117.779 27.4018C118.76 28.4034 119.957 28.9008 121.353 28.9008C122.759 28.9008 123.956 28.4034 124.937 27.4018C125.912 26.4002 126.395 25.1929 126.395 23.766C126.395 22.3493 125.908 21.1316 124.937 20.1301C123.956 19.1285 122.759 18.6311 121.353 18.6311C119.953 18.6311 118.76 19.1285 117.779 20.1301C116.805 21.1316 116.321 22.3493 116.321 23.766ZM107.547 23.766C107.547 20.1095 108.895 16.9881 111.577 14.4156C114.273 11.8533 117.525 10.567 121.353 10.567C125.191 10.567 128.453 11.8533 131.139 14.4156C133.835 16.9881 135.169 20.1095 135.169 23.766C135.169 27.4224 133.832 30.5438 131.139 33.1163C128.453 35.6889 125.191 36.9752 121.353 36.9752C117.525 36.9752 114.273 35.6889 111.577 33.1163C108.895 30.5438 107.547 27.4224 107.547 23.766Z" fill="#004040"/>
<path d="M138.764 11.266H143.312C143.81 11.266 144.235 11.3758 144.588 11.6193C144.942 11.8526 145.226 12.2059 145.449 12.6724L146.149 14.2434C147.072 13.1492 148.022 12.3088 148.996 11.7325C149.977 11.1563 150.93 10.8716 151.874 10.8716C152.886 10.8716 153.657 11.0945 154.182 11.5405C154.71 11.9864 154.913 12.6141 154.8 13.4441L154.1 19.1484C154.007 19.8069 153.795 20.294 153.462 20.6267C153.139 20.9526 152.694 21.1241 152.124 21.1241C151.942 21.1241 151.74 21.0932 151.538 21.0623C151.335 21.0212 151.03 20.9423 150.625 20.8394C150.179 20.6988 149.836 20.6061 149.603 20.565C149.38 20.5238 149.157 20.5032 148.944 20.5032C148.145 20.5032 147.497 20.7365 147.02 21.2133C146.533 21.6798 146.29 22.3177 146.29 23.1375V35.1908C146.29 35.4652 146.17 35.7191 145.926 35.9317C145.682 36.1444 145.408 36.2473 145.096 36.2473H138.733C138.39 36.2473 138.116 36.1375 137.893 35.9146C137.67 35.7019 137.567 35.4275 137.567 35.0948V12.446C137.567 12.1133 137.677 11.8389 137.9 11.6056C138.126 11.3758 138.421 11.266 138.764 11.266Z" fill="#004040"/>
<path d="M165.903 4.76022C165.903 6.04649 165.426 7.15097 164.466 8.08395C163.502 9.01693 162.36 9.47314 161.032 9.47314C159.695 9.47314 158.549 9.01693 157.578 8.08395C156.608 7.15097 156.131 6.04649 156.131 4.76022C156.131 3.47394 156.608 2.35915 157.578 1.41588C158.549 0.472612 159.695 -0.000732422 161.032 -0.000732422C162.36 -0.000732422 163.506 0.476042 164.466 1.41588C165.426 2.35915 165.903 3.47051 165.903 4.76022Z" fill="#2B2B2B"/>
<path d="M189.749 18.092L179.853 28.7801H189.708C190.03 28.7801 190.305 28.9036 190.528 29.1128C190.74 29.3358 190.85 29.6102 190.85 29.9326V35.088C190.85 35.4207 190.74 35.6951 190.528 35.9078C190.305 36.1307 190.03 36.2405 189.708 36.2405H169.227C168.901 36.2405 168.62 36.117 168.376 35.8872C168.133 35.654 168.013 35.3693 168.013 35.0468V30.8038C168.013 30.4985 168.054 30.255 168.133 30.0526C168.205 29.8503 168.345 29.6376 168.548 29.4455L178.656 18.7197H169.611C169.278 18.7197 168.994 18.6099 168.76 18.3767C168.527 18.1331 168.407 17.8484 168.407 17.526V12.4804C168.407 12.1545 168.527 11.8732 168.771 11.6297C169.014 11.3862 169.299 11.2661 169.611 11.2661H189.101C189.427 11.2661 189.708 11.3862 189.941 11.6297C190.174 11.8732 190.294 12.1579 190.294 12.4804V16.7028C190.294 16.9978 190.253 17.2482 190.174 17.454C190.092 17.6563 189.951 17.869 189.749 18.092Z" fill="#004040"/>
<path d="M200.983 20.535H209.27C209.099 19.5608 208.632 18.7719 207.871 18.1648C207.113 17.5474 206.231 17.2421 205.206 17.2421C204.204 17.2421 203.312 17.5474 202.52 18.1648C201.731 18.7719 201.227 19.5608 200.983 20.535ZM216.683 32.1629C215.681 33.6207 214.182 34.787 212.196 35.6582C210.21 36.5294 208.042 36.9753 205.682 36.9753C201.69 36.9753 198.421 35.7302 195.866 33.2571C193.303 30.7772 192.027 27.6558 192.027 23.8862C192.027 19.9759 193.231 16.7756 195.622 14.2923C198.023 11.7986 201.172 10.5535 205.062 10.5535C208.821 10.5535 211.87 11.7471 214.21 14.1379C216.559 16.5184 217.736 19.4442 217.736 22.9189V24.3458C217.736 24.8912 217.616 25.3268 217.382 25.663C217.149 25.9854 216.817 26.15 216.371 26.15H200.801C201.035 27.306 201.601 28.2252 202.513 28.8941C203.415 29.563 204.52 29.906 205.796 29.906C206.657 29.906 207.446 29.7447 208.176 29.4292C208.907 29.1136 209.603 28.63 210.272 27.9508C210.577 27.6558 210.879 27.4946 211.205 27.4637C211.531 27.4329 211.853 27.5255 212.196 27.7484L216.419 30.5131C216.714 30.7052 216.885 30.9487 216.926 31.2643C216.967 31.5867 216.875 31.8783 216.683 32.1629Z" fill="#004040"/>
<path d="M230.775 31.3628C230.775 32.9029 230.23 34.22 229.126 35.3142C228.021 36.4187 226.694 36.9744 225.143 36.9744C223.613 36.9744 222.296 36.4187 221.202 35.3142C220.108 34.22 219.562 32.9029 219.562 31.3628C219.562 29.8124 220.108 28.4952 221.202 27.401C222.296 26.3068 223.613 25.7615 225.143 25.7615C226.694 25.7615 228.021 26.3068 229.126 27.401C230.23 28.4952 230.775 29.8124 230.775 31.3628Z" fill="#2B2B2B"/>
<path d="M246.218 18.1346C245.024 18.1346 244.05 18.5085 243.282 19.2494C242.524 20.0006 242.136 20.9919 242.136 22.2473V35.0724C242.136 35.4154 242.027 35.7001 241.804 35.923C241.591 36.1357 241.306 36.2489 240.963 36.2489H234.58C234.237 36.2489 233.962 36.1391 233.739 35.923C233.517 35.7001 233.407 35.4154 233.407 35.0724V12.4441C233.407 12.1011 233.517 11.8165 233.739 11.5935C233.962 11.3808 234.237 11.2676 234.58 11.2676H240.963C241.306 11.2676 241.591 11.3774 241.804 11.5935C242.027 11.8165 242.136 12.1011 242.136 12.4441V14.2484C242.935 13.0444 243.941 12.132 245.175 11.5043C246.4 10.8766 247.81 10.561 249.398 10.561C252.547 10.561 254.927 11.5043 256.549 13.3668C258.162 15.2397 258.971 17.9563 258.971 21.5201V35.0724C258.971 35.4154 258.861 35.7001 258.645 35.923C258.422 36.1357 258.138 36.2489 257.795 36.2489H251.421C251.078 36.2489 250.794 36.1391 250.571 35.923C250.358 35.7001 250.245 35.4154 250.245 35.0724V22.2473C250.245 20.9919 249.871 19.9972 249.12 19.2494C248.376 18.5085 247.405 18.1346 246.218 18.1346Z" fill="#004040"/>
<path d="M270.102 20.535H278.379C278.207 19.5608 277.741 18.7719 276.989 18.1648C276.231 17.5474 275.34 17.2421 274.324 17.2421C273.323 17.2421 272.431 17.5474 271.639 18.1648C270.853 18.7719 270.335 19.5608 270.102 20.535ZM285.795 32.1629C284.793 33.6207 283.304 34.787 281.318 35.6582C279.332 36.5294 277.154 36.9753 274.794 36.9753C270.802 36.9753 267.533 35.7302 264.977 33.2571C262.425 30.7772 261.149 27.6558 261.149 23.8862C261.149 19.9759 262.343 16.7756 264.744 14.2923C267.145 11.7986 270.284 10.5535 274.184 10.5535C277.933 10.5535 280.982 11.7471 283.332 14.1379C285.671 16.5184 286.848 19.4442 286.848 22.9189V24.3458C286.848 24.8912 286.738 25.3268 286.494 25.663C286.261 25.9854 285.928 26.15 285.493 26.15H269.924C270.157 27.306 270.723 28.2252 271.635 28.8941C272.537 29.563 273.631 29.906 274.918 29.906C275.779 29.906 276.568 29.7447 277.298 29.4292C278.029 29.1136 278.715 28.63 279.394 27.9508C279.689 27.6558 280.001 27.4946 280.317 27.4637C280.643 27.4329 280.975 27.5255 281.318 27.7484L285.534 30.5131C285.839 30.7052 286.011 30.9487 286.041 31.2643C286.076 31.5867 285.997 31.8783 285.795 32.1629Z" fill="#004040"/>
<path d="M165.407 12.4392V35.0674C165.407 35.4001 165.297 35.6745 165.064 35.8975C164.841 36.1307 164.556 36.2405 164.213 36.2405H157.881C157.538 36.2405 157.253 36.1307 157.02 35.8975C156.797 35.6745 156.688 35.4001 156.688 35.0674V12.4392C156.688 12.1065 156.797 11.8321 157.02 11.6091C157.253 11.3759 157.538 11.2661 157.881 11.2661H164.213C164.556 11.2661 164.841 11.3759 165.064 11.6091C165.297 11.8321 165.407 12.1065 165.407 12.4392Z" fill="#004040"/>
<path d="M300.224 36.7835C297.49 36.7835 295.302 36.0632 293.669 34.6362C292.03 33.199 291.217 31.2233 291.217 28.6885V18.5286H288.634C288.318 18.5286 288.047 18.4154 287.824 18.1753C287.601 17.9421 287.481 17.6574 287.481 17.3144V15.5101C287.481 14.9716 287.533 14.5463 287.643 14.2136C287.746 13.8877 287.927 13.5756 288.188 13.2703L294.396 6.38271C294.935 5.80645 295.367 5.41886 295.724 5.25765C296.077 5.08614 296.533 4.99353 297.103 4.99353H298.763C299.096 4.99353 299.37 5.10672 299.593 5.33653C299.826 5.55949 299.936 5.8339 299.936 6.16661V11.3014H305.428C305.75 11.3014 306.035 11.4146 306.268 11.6444C306.501 11.8674 306.621 12.1418 306.621 12.4745V17.3075C306.621 17.6505 306.501 17.9352 306.268 18.1685C306.035 18.412 305.75 18.5218 305.428 18.5218H299.939V26.8465C299.939 27.4537 300.101 27.9407 300.427 28.2837C300.759 28.637 301.205 28.8223 301.775 28.8223C302.097 28.8223 302.454 28.7502 302.828 28.6199C303.201 28.4895 303.627 28.2769 304.114 27.9922C304.601 27.7178 305.006 27.6183 305.349 27.6972C305.681 27.7692 305.997 28.0196 306.292 28.4484L308.501 31.7516C308.755 32.1254 308.865 32.5027 308.854 32.8766C308.834 33.2505 308.693 33.5866 308.408 33.8576C307.517 34.77 306.343 35.4766 304.872 35.9946C303.414 36.5194 301.864 36.7835 300.224 36.7835Z" fill="#004040"/>
</svg>
